<svg width="32" height="38" viewBox="0 0 32 38" fill="none" xmlns="http://www.w3.org/2000/svg">
<path fill-rule="evenodd" clip-rule="evenodd" d="M28.963 13.2679C28.963 13.2679 28.333 12.6549 25.953 13.2139L22.25 21.8359L17.883 19.9409L15.212 20.6969C15.554 22.9889 15.762 24.8279 16.155 26.8239C14.217 25.1449 11.816 23.4729 9.20103 22.5759C9.21703 22.4639 9.23403 22.3469 9.25103 22.2329C9.25103 22.2329 11.48 20.2209 22.823 17.3929L24.622 13.3719C22.912 13.6709 19.456 14.4919 17.754 15.0259C17.007 9.2989 16.129 0.3479 16.129 0.3479C15.883 0.3509 11.666 0.6079 10.609 2.9259C8.59403 7.0659 7.17303 13.3179 6.15903 19.9569C2.90303 21.6679 0.716033 23.0709 0.509033 23.2049L2.24103 26.1549C3.27803 25.5869 4.21903 25.3429 5.42503 25.3509C4.86703 29.9399 4.49603 34.2899 4.26003 37.6509L7.77703 36.0109C8.04803 32.3899 8.37403 29.0729 8.74103 26.0629C11.895 27.3389 14.769 30.0569 16.5 31.9379L19.997 30.3059C19.655 28.7489 19.121 25.8579 18.725 23.9539L23.256 26.0319L26.745 18.5939L28.549 26.3109L31.593 24.8909L28.963 13.2679ZM13.201 5.3609C13.503 8.2659 13.936 12.1619 14.468 16.1699C12.878 16.7779 11.344 17.4379 9.91203 18.1009C10.941 12.2549 12.111 8.0599 13.201 5.3609Z" fill="#8E8E8E"/>
</svg>
