<svg width="19" height="18" viewBox="0 0 19 18" fill="none" xmlns="http://www.w3.org/2000/svg">
<path fill-rule="evenodd" clip-rule="evenodd" d="M14.45 9C14.45 12 12.05 14.4 9.05 14.4C6.05 14.4 3.65 12 3.65 9C3.65 8.6 3.65 8.3 3.75 8H0.0500031V15.2C0.0500031 16.7 1.35 18 2.85 18H15.25C16.85 18 18.05 16.7 18.05 15.2V8H14.35C14.45 8.3 14.45 8.6 14.45 9ZM15.25 0H2.85C1.35 0 0.0500031 1.3 0.0500031 2.8V5.8H4.65C5.65 4.4 7.25 3.5 9.05 3.5C10.85 3.5 12.55 4.4 13.45 5.8H18.05V2.8C18.05 1.3 16.75 0 15.25 0ZM16.65 3.5C16.65 3.8 16.45 4 16.15 4H14.65C14.35 4 14.15 3.8 14.15 3.5V2C14.15 1.7 14.35 1.5 14.65 1.5H16.15C16.45 1.5 16.65 1.7 16.65 2V3.5ZM12.35 9C12.35 7.2 10.85 5.7 9.05 5.7C7.25 5.7 5.75 7.2 5.75 9C5.75 10.8 7.25 12.3 9.05 12.3C10.85 12.3 12.35 10.8 12.35 9Z" fill="#8E8E8E"/>
</svg>
