<svg width="269" height="30" viewBox="0 0 269 30" fill="none" xmlns="http://www.w3.org/2000/svg">
<path fill-rule="evenodd" clip-rule="evenodd" d="M81.364 0.822312H75.094V28.9994H81.364V0.822312ZM57.5964 8.56005C57.5964 10.312 58.9087 10.896 63.7206 12.2099C69.5531 13.6699 72.761 15.7138 72.4694 20.6776V20.8236C72.4694 26.3714 68.2408 29.5833 62.1166 29.5833C57.888 29.5833 53.5136 28.1234 50.1599 25.0575L53.8052 20.6776C56.4299 22.7216 59.0545 24.0355 62.2624 24.0355C64.8871 24.0355 66.3452 23.0136 66.3452 21.4076V21.2616C66.3452 19.6557 65.3245 18.7797 60.6585 17.6117C54.9718 16.1518 51.3264 14.5458 51.3264 8.99803V8.85204C51.3264 3.74221 55.4092 0.384327 61.2417 0.384327C65.3245 0.384327 68.8241 1.69828 71.7403 4.0342L68.5324 8.70604C66.0536 6.9541 63.5748 5.93214 61.2417 5.93214C58.9087 5.93214 57.5964 7.1001 57.5964 8.41405V8.56005ZM103.819 18.1957H97.841V12.7939H110.089V25.0575C107.173 27.5394 103.09 29.5833 97.9868 29.5833C89.0922 29.5833 83.1138 23.4515 83.1138 15.1298V14.9838C83.1138 6.9541 89.238 0.384327 97.841 0.384327C102.944 0.384327 106.007 1.84428 108.923 4.32619L104.986 8.99803C102.799 7.1001 100.757 6.07813 97.5493 6.07813C93.0291 6.07813 89.3838 10.02 89.3838 14.8378V15.1298C89.3838 20.2397 93.0291 24.0355 97.9868 24.0355C100.174 24.0355 102.215 23.4515 103.819 22.2836V18.1957ZM47.3894 17.6117H34.1204V23.5975H49.4308V29.1453H27.9962V0.822312H49.285V6.37012H34.1204V12.0639H47.3894V17.6117ZM0 0.822312H10.936C19.8307 0.822312 25.9548 6.9541 25.9548 14.8378C25.9548 22.8676 19.8307 28.9994 10.936 28.9994H0V0.822312ZM11.0818 23.5975C16.1853 23.5975 19.539 20.0937 19.539 15.1298C19.539 10.02 16.0395 6.51612 11.0818 6.51612H6.26999V23.5975H11.0818ZM177.747 0.968307C184.454 0.968307 188.391 4.47219 188.391 10.312C188.391 14.8378 185.912 17.7577 182.413 19.0717L189.266 29.1453H181.975L175.997 20.0937H171.185V29.1453H164.915V0.968307H177.747ZM177.309 14.5458C180.372 14.5458 182.121 12.9399 182.121 10.604C182.121 7.83007 180.226 6.51612 177.164 6.51612H171.039V14.5458H177.309ZM160.395 17.6117H147.126V23.5975H162.436V29.1453H140.856V0.822312H162.145V6.37012H147.126V12.0639H160.395V17.6117ZM202.681 12.2099C197.869 10.896 196.557 10.312 196.557 8.56005V8.41405C196.557 7.1001 197.869 5.93214 200.202 5.93214C202.535 5.93214 205.014 6.9541 207.493 8.70604L210.701 4.0342C207.784 1.69828 204.285 0.384327 200.202 0.384327C194.37 0.384327 190.287 3.74221 190.287 8.85204V8.99803C190.287 14.5458 193.932 16.1518 199.619 17.6117C204.285 18.7797 205.306 19.6557 205.306 21.2616V21.4076C205.306 23.0136 203.702 24.0355 201.223 24.0355C198.015 24.0355 195.39 22.7216 192.766 20.6776L189.12 25.0575C192.474 28.1234 196.848 29.5833 201.077 29.5833C207.201 29.5833 211.43 26.3714 211.43 20.8236V20.6776C211.576 15.7138 208.368 13.6699 202.681 12.2099ZM131.524 18.1957L118.401 0.822312H112.714V29.1453H118.692V11.188L132.399 29.1453H137.648V0.822312H131.524V18.1957Z" fill="white"/>
<path fill-rule="evenodd" clip-rule="evenodd" d="M227.907 18.3417L215.513 0.822311H214.784V29.1453H215.658V2.42826L227.761 19.8017H227.907L240.009 2.42826V29.1453H240.884V0.822311H240.155L227.907 18.3417ZM256.195 14.6918L267.422 0.822311H266.256L255.757 14.1079L245.113 0.822311H244.092L255.174 14.6918L243.655 29.1453H244.821L255.757 15.2758L266.693 29.1453H267.714L256.195 14.6918Z" fill="white"/>
<path d="M215.513 0.822311L215.921 0.533542L215.771 0.322311H215.513V0.822311ZM214.784 0.822311V0.322311H214.284V0.822311H214.784ZM214.784 29.1453H214.284V29.6453H214.784V29.1453ZM215.658 29.1453V29.6453H216.158V29.1453H215.658ZM215.658 2.42826L216.069 2.14246L215.158 0.835753V2.42826H215.658ZM227.761 19.8017L227.351 20.0875L227.5 20.3017H227.761V19.8017ZM227.907 19.8017V20.3017H228.168L228.317 20.0875L227.907 19.8017ZM240.009 2.42826H240.509V0.835753L239.599 2.14246L240.009 2.42826ZM240.009 29.1453H239.509V29.6453H240.009V29.1453ZM240.884 29.1453V29.6453H241.384V29.1453H240.884ZM240.884 0.822311H241.384V0.322311H240.884V0.822311ZM240.155 0.822311V0.322311H239.895L239.745 0.535819L240.155 0.822311ZM267.422 0.822311L267.811 1.13691L268.47 0.322311H267.422V0.822311ZM266.256 0.822311V0.322311H266.014L265.863 0.512307L266.256 0.822311ZM255.757 14.1079L255.367 14.4205L255.76 14.9109L256.15 14.4179L255.757 14.1079ZM245.113 0.822311L245.503 0.509678L245.353 0.322311H245.113V0.822311ZM244.092 0.822311V0.322311H243.053L243.701 1.13442L244.092 0.822311ZM255.174 14.6918L255.565 15.0035L255.814 14.6914L255.565 14.3797L255.174 14.6918ZM243.655 29.1453L243.264 28.8337L242.617 29.6453H243.655V29.1453ZM244.821 29.1453V29.6453H245.064L245.214 29.4549L244.821 29.1453ZM255.757 15.2758L256.15 14.9662L255.757 14.4683L255.365 14.9662L255.757 15.2758ZM266.693 29.1453L266.301 29.4549L266.451 29.6453H266.693V29.1453ZM267.714 29.1453V29.6453H268.752L268.105 28.8337L267.714 29.1453ZM228.315 18.0529L215.921 0.533542L215.104 1.11108L227.499 18.6305L228.315 18.0529ZM215.513 0.322311H214.784V1.32231H215.513V0.322311ZM214.284 0.822311V29.1453H215.284V0.822311H214.284ZM214.784 29.6453H215.658V28.6453H214.784V29.6453ZM216.158 29.1453V2.42826H215.158V29.1453H216.158ZM215.248 2.71405L227.351 20.0875L228.171 19.5159L216.069 2.14246L215.248 2.71405ZM227.761 20.3017H227.907V19.3017H227.761V20.3017ZM228.317 20.0875L240.42 2.71405L239.599 2.14246L227.497 19.5159L228.317 20.0875ZM239.509 2.42826V29.1453H240.509V2.42826H239.509ZM240.009 29.6453H240.884V28.6453H240.009V29.6453ZM241.384 29.1453V0.822311H240.384V29.1453H241.384ZM240.884 0.322311H240.155V1.32231H240.884V0.322311ZM239.745 0.535819L227.497 18.0552L228.317 18.6282L240.565 1.1088L239.745 0.535819ZM256.583 15.0064L267.811 1.13691L267.034 0.507713L255.806 14.3772L256.583 15.0064ZM267.422 0.322311H266.256V1.32231H267.422V0.322311ZM265.863 0.512307L255.365 13.7979L256.15 14.4179L266.648 1.13232L265.863 0.512307ZM256.147 13.7952L245.503 0.509678L244.723 1.13494L255.367 14.4205L256.147 13.7952ZM245.113 0.322311H244.092V1.32231H245.113V0.322311ZM243.701 1.13442L254.783 15.004L255.565 14.3797L244.483 0.510201L243.701 1.13442ZM254.783 14.3802L243.264 28.8337L244.046 29.457L255.565 15.0035L254.783 14.3802ZM243.655 29.6453H244.821V28.6453H243.655V29.6453ZM245.214 29.4549L256.15 15.5854L255.365 14.9662L244.429 28.8358L245.214 29.4549ZM255.365 15.5854L266.301 29.4549L267.086 28.8358L256.15 14.9662L255.365 15.5854ZM266.693 29.6453H267.714V28.6453H266.693V29.6453ZM268.105 28.8337L256.586 14.3802L255.804 15.0035L267.323 29.457L268.105 28.8337Z" fill="white"/>
<path fill-rule="evenodd" clip-rule="evenodd" d="M244.821 6.66211V22.4296L250.945 14.8378L244.821 6.66211Z" fill="#DF5126"/>
</svg>
