<svg width="30" height="29" viewBox="0 0 30 29" fill="none" xmlns="http://www.w3.org/2000/svg">
<g filter="url(#filter0_d)">
<path fill-rule="evenodd" clip-rule="evenodd" d="M27.427 22.229L21.2147 16.2235C22.0816 14.6872 22.6595 13.0112 22.6595 11.0559C22.6595 5.7486 17.7474 1 12.113 1C6.62309 1 2 5.46927 2 10.7765C2 16.2235 6.91204 20.9721 12.5464 20.9721C14.4246 20.9721 16.1582 20.4134 17.6029 19.5754L23.8152 25.581C24.3931 26.1397 25.4044 26.1397 25.9823 25.581L27.5715 24.0447C28.2938 23.6257 28.0049 22.9274 27.427 22.229ZM12.5464 17.8994C8.6457 17.8994 5.17838 14.5475 5.17838 10.7765C5.17838 7.00559 8.35676 3.93296 12.2575 3.93296C16.1582 3.93296 19.6255 7.28492 19.6255 11.0559C19.4811 14.9665 16.4472 17.8994 12.5464 17.8994Z" fill="white"/>
</g>
<defs>
<filter id="filter0_d" x="0" y="0" width="30" height="29" filterUnits="userSpaceOnUse" color-interpolation-filters="sRGB">
<feFlood flood-opacity="0" result="BackgroundImageFix"/>
<feColorMatrix in="SourceAlpha" type="matrix" values="0 0 0 0 0 0 0 0 0 0 0 0 0 0 0 0 0 0 127 0"/>
<feOffset dy="1"/>
<feGaussianBlur stdDeviation="1"/>
<feColorMatrix type="matrix" values="0 0 0 0 0 0 0 0 0 0 0 0 0 0 0 0 0 0 0.5 0"/>
<feBlend mode="normal" in2="BackgroundImageFix" result="effect1_dropShadow"/>
<feBlend mode="normal" in="SourceGraphic" in2="effect1_dropShadow" result="shape"/>
</filter>
</defs>
</svg>
