<svg width="21" height="16" viewBox="0 0 21 16" fill="none" xmlns="http://www.w3.org/2000/svg">
<path fill-rule="evenodd" clip-rule="evenodd" d="M20.1 1.9C19.4 2.2 18.6 2.4 17.7 2.5C18.5 2 19.2 1.2 19.5 0.3C18.7 0.8 17.8 1.1 16.9 1.3C16.2 0.5 15.1 0 13.9 0C11.6 0 9.8 1.8 9.8 4C9.8 4.3 9.8 4.6 9.9 4.9C6.5 4.8 3.5 3.2 1.5 0.7C1.1 1.3 0.9 2 0.9 2.8C0.9 4.2 1.6 5.4 2.7 6.2C2.1 6.1 1.5 5.9 0.9 5.6V5.7C0.9 7.7 2.3 9.3 4.2 9.7C3.9 9.7 3.5 9.8 3.1 9.8C2.8 9.8 2.6 9.8 2.3 9.7C2.8 11.3 4.3 12.5 6.1 12.5C4.7 13.6 2.9 14.2 1 14.2C0.7 14.2 0.3 14.2 0 14.1C1.9 15.3 4.1 16 6.4 16C13.9 16 18.1 9.8 18.1 4.5V4C18.9 3.4 19.5 2.7 20.1 1.9V1.9Z" fill="#8E8E8E"/>
</svg>
